<?xml version="1.0" encoding="UTF-8"?>
<!--Generator: Apple Native CoreSVG 326-->
<!DOCTYPE svg
PUBLIC "-//W3C//DTD SVG 1.1//EN"
       "http://www.w3.org/Graphics/SVG/1.1/DTD/svg11.dtd">
<svg version="1.1" xmlns="http://www.w3.org/2000/svg" xmlns:xlink="http://www.w3.org/1999/xlink" viewBox="0 0 3300 2200">
 <!--glyph: "1024F2", point size: 100.0, font version: "20.0d8e1", template writer version: "138.0.0"-->
 <style>.monochrome-0 {-sfsymbols-motion-group:1;-sfsymbols-layer-tags:dollarsign.bank.building}
.monochrome-1 {-sfsymbols-motion-group:0;-sfsymbols-always-pulses:true;-sfsymbols-layer-tags:dollarsign.bank.building}

.multicolor-0:tintColor {-sfsymbols-motion-group:1;-sfsymbols-layer-tags:dollarsign.bank.building}
.multicolor-1:tintColor {-sfsymbols-motion-group:0;-sfsymbols-always-pulses:true;-sfsymbols-layer-tags:dollarsign.bank.building}

.hierarchical-0:secondary {-sfsymbols-motion-group:1;-sfsymbols-layer-tags:dollarsign.bank.building}
.hierarchical-1:primary {-sfsymbols-motion-group:0;-sfsymbols-layer-tags:dollarsign.bank.building}

.SFSymbolsPreviewWireframe {fill:none;opacity:1.0;stroke:black;stroke-width:0.5}
</style>
 <g id="Notes">
  <rect height="2200" id="artboard" style="fill:white;opacity:1" width="3300" x="0" y="0"/>
  <line style="fill:none;stroke:black;opacity:1;stroke-width:0.5;" x1="263" x2="3036" y1="292" y2="292"/>
  <text style="stroke:none;fill:black;font-family:sans-serif;font-size:13;font-weight:bold;" transform="matrix(1 0 0 1 263 322)">Weight/Scale Variations</text>
  <text style="stroke:none;fill:black;font-family:sans-serif;font-size:13;text-anchor:middle;" transform="matrix(1 0 0 1 559.711 322)">Ultralight</text>
  <text style="stroke:none;fill:black;font-family:sans-serif;font-size:13;text-anchor:middle;" transform="matrix(1 0 0 1 856.422 322)">Thin</text>
  <text style="stroke:none;fill:black;font-family:sans-serif;font-size:13;text-anchor:middle;" transform="matrix(1 0 0 1 1153.13 322)">Light</text>
  <text style="stroke:none;fill:black;font-family:sans-serif;font-size:13;text-anchor:middle;" transform="matrix(1 0 0 1 1449.84 322)">Regular</text>
  <text style="stroke:none;fill:black;font-family:sans-serif;font-size:13;text-anchor:middle;" transform="matrix(1 0 0 1 1746.56 322)">Medium</text>
  <text style="stroke:none;fill:black;font-family:sans-serif;font-size:13;text-anchor:middle;" transform="matrix(1 0 0 1 2043.27 322)">Semibold</text>
  <text style="stroke:none;fill:black;font-family:sans-serif;font-size:13;text-anchor:middle;" transform="matrix(1 0 0 1 2339.98 322)">Bold</text>
  <text style="stroke:none;fill:black;font-family:sans-serif;font-size:13;text-anchor:middle;" transform="matrix(1 0 0 1 2636.69 322)">Heavy</text>
  <text style="stroke:none;fill:black;font-family:sans-serif;font-size:13;text-anchor:middle;" transform="matrix(1 0 0 1 2933.4 322)">Black</text>
  <line style="fill:none;stroke:black;opacity:1;stroke-width:0.5;" x1="263" x2="3036" y1="1903" y2="1903"/>
  <g transform="matrix(0.2 0 0 0.2 263 1933)">
   <path d="m46.2402 4.15039c21.7773 0 39.4531-17.627 39.4531-39.4043s-17.6758-39.4043-39.4531-39.4043c-21.7285 0-39.4043 17.627-39.4043 39.4043s17.6758 39.4043 39.4043 39.4043Zm0-7.42188c-17.6758 0-31.9336-14.3066-31.9336-31.9824s14.2578-31.9824 31.9336-31.9824 31.9824 14.3066 31.9824 31.9824-14.3066 31.9824-31.9824 31.9824Zm-17.9688-31.9824c0 2.14844 1.51367 3.61328 3.75977 3.61328h10.498v10.5957c0 2.19727 1.46484 3.71094 3.61328 3.71094 2.24609 0 3.71094-1.51367 3.71094-3.71094v-10.5957h10.5957c2.19727 0 3.71094-1.46484 3.71094-3.61328 0-2.19727-1.51367-3.71094-3.71094-3.71094h-10.5957v-10.5469c0-2.24609-1.46484-3.75977-3.71094-3.75977-2.14844 0-3.61328 1.51367-3.61328 3.75977v10.5469h-10.498c-2.24609 0-3.75977 1.51367-3.75977 3.71094Z"/>
  </g>
  <g transform="matrix(0.2 0 0 0.2 281.506 1933)">
   <path d="m58.5449 14.5508c27.4902 0 49.8047-22.3145 49.8047-49.8047s-22.3145-49.8047-49.8047-49.8047-49.8047 22.3145-49.8047 49.8047 22.3145 49.8047 49.8047 49.8047Zm0-8.30078c-22.9492 0-41.5039-18.5547-41.5039-41.5039s18.5547-41.5039 41.5039-41.5039 41.5039 18.5547 41.5039 41.5039-18.5547 41.5039-41.5039 41.5039Zm-22.6562-41.5039c0 2.39258 1.66016 4.00391 4.15039 4.00391h14.3555v14.4043c0 2.44141 1.66016 4.15039 4.05273 4.15039 2.44141 0 4.15039-1.66016 4.15039-4.15039v-14.4043h14.4043c2.44141 0 4.15039-1.61133 4.15039-4.00391 0-2.44141-1.70898-4.15039-4.15039-4.15039h-14.4043v-14.3555c0-2.49023-1.70898-4.19922-4.15039-4.19922-2.39258 0-4.05273 1.70898-4.05273 4.19922v14.3555h-14.3555c-2.49023 0-4.15039 1.70898-4.15039 4.15039Z"/>
  </g>
  <g transform="matrix(0.2 0 0 0.2 304.924 1933)">
   <path d="m74.8535 28.3203c35.1074 0 63.623-28.4668 63.623-63.5742s-28.5156-63.623-63.623-63.623-63.5742 28.5156-63.5742 63.623 28.4668 63.5742 63.5742 63.5742Zm0-9.08203c-30.127 0-54.4922-24.3652-54.4922-54.4922s24.3652-54.4922 54.4922-54.4922 54.4922 24.3652 54.4922 54.4922-24.3652 54.4922-54.4922 54.4922Zm-28.8574-54.4922c0 2.58789 1.85547 4.39453 4.58984 4.39453h19.7266v19.7754c0 2.68555 1.85547 4.58984 4.44336 4.58984 2.68555 0 4.54102-1.85547 4.54102-4.58984v-19.7754h19.7754c2.68555 0 4.58984-1.80664 4.58984-4.39453 0-2.73438-1.85547-4.58984-4.58984-4.58984h-19.7754v-19.7266c0-2.73438-1.85547-4.63867-4.54102-4.63867-2.58789 0-4.44336 1.9043-4.44336 4.63867v19.7266h-19.7266c-2.73438 0-4.58984 1.85547-4.58984 4.58984Z"/>
  </g>
  <text style="stroke:none;fill:black;font-family:sans-serif;font-size:13;font-weight:bold;" transform="matrix(1 0 0 1 263 1953)">Design Variations</text>
  <text style="stroke:none;fill:black;font-family:sans-serif;font-size:13;" transform="matrix(1 0 0 1 263 1971)">Symbols are supported in up to nine weights and three scales.</text>
  <text style="stroke:none;fill:black;font-family:sans-serif;font-size:13;" transform="matrix(1 0 0 1 263 1989)">For optimal layout with text and other symbols, vertically align</text>
  <text style="stroke:none;fill:black;font-family:sans-serif;font-size:13;" transform="matrix(1 0 0 1 263 2007)">symbols with the adjacent text.</text>
  <line style="fill:none;stroke:#00AEEF;stroke-width:0.5;opacity:1.0;" x1="776" x2="776" y1="1919" y2="1933"/>
  <g transform="matrix(0.2 0 0 0.2 776 1933)">
   <path d="m16.5527 0.78125c2.58789 0 3.85742-0.976562 4.78516-3.71094l6.29883-17.2363h28.8086l6.29883 17.2363c0.927734 2.73438 2.19727 3.71094 4.73633 3.71094 2.58789 0 4.24805-1.5625 4.24805-4.00391 0-0.830078-0.146484-1.61133-0.537109-2.63672l-22.9004-60.9863c-1.12305-2.97852-3.125-4.49219-6.25-4.49219-3.02734 0-5.07812 1.46484-6.15234 4.44336l-22.9004 61.084c-0.390625 1.02539-0.537109 1.80664-0.537109 2.63672 0 2.44141 1.5625 3.95508 4.10156 3.95508Zm13.4766-28.3691 11.8652-32.8613h0.244141l11.8652 32.8613Z"/>
  </g>
  <line style="fill:none;stroke:#00AEEF;stroke-width:0.5;opacity:1.0;" x1="792.836" x2="792.836" y1="1919" y2="1933"/>
  <text style="stroke:none;fill:black;font-family:sans-serif;font-size:13;font-weight:bold;" transform="matrix(1 0 0 1 776 1953)">Margins</text>
  <text style="stroke:none;fill:black;font-family:sans-serif;font-size:13;" transform="matrix(1 0 0 1 776 1971)">Leading and trailing margins on the left and right side of each symbol</text>
  <text style="stroke:none;fill:black;font-family:sans-serif;font-size:13;" transform="matrix(1 0 0 1 776 1989)">can be adjusted by modifying the x-location of the margin guidelines.</text>
  <text style="stroke:none;fill:black;font-family:sans-serif;font-size:13;" transform="matrix(1 0 0 1 776 2007)">Modifications are automatically applied proportionally to all</text>
  <text style="stroke:none;fill:black;font-family:sans-serif;font-size:13;" transform="matrix(1 0 0 1 776 2025)">scales and weights.</text>
  <g transform="matrix(0.2 0 0 0.2 1289 1933)">
   <path d="m14.209 9.32617 8.49609 8.54492c4.29688 4.3457 9.22852 4.05273 13.8672-1.07422l53.4668-58.9355-4.83398-4.88281-53.0762 58.3984c-1.75781 2.00195-3.41797 2.49023-5.76172 0.146484l-5.85938-5.81055c-2.34375-2.29492-1.80664-4.00391 0.195312-5.81055l57.373-54.0039-4.88281-4.83398-57.959 54.4434c-4.93164 4.58984-5.32227 9.47266-1.02539 13.8184Zm32.0801-90.9668c-2.09961 2.05078-2.24609 4.93164-1.07422 6.88477 1.17188 1.80664 3.4668 2.97852 6.68945 2.14844 7.32422-1.70898 14.9414-2.00195 22.0703 2.68555l-2.92969 7.27539c-1.70898 4.15039-0.830078 7.08008 1.85547 9.81445l11.4746 11.5723c2.44141 2.44141 4.49219 2.53906 7.32422 2.05078l5.32227-0.976562 3.32031 3.36914-0.195312 2.7832c-0.195312 2.49023 0.439453 4.39453 2.88086 6.78711l3.80859 3.71094c2.39258 2.39258 5.46875 2.53906 7.8125 0.195312l14.5508-14.5996c2.34375-2.34375 2.24609-5.32227-0.146484-7.71484l-3.85742-3.80859c-2.39258-2.39258-4.24805-3.17383-6.64062-2.97852l-2.88086 0.244141-3.22266-3.17383 1.2207-5.61523c0.634766-2.83203-0.146484-5.0293-3.07617-7.95898l-10.9863-10.9375c-16.6992-16.6016-38.8672-16.2109-53.3203-1.75781Zm7.4707 1.85547c12.1582-8.88672 28.6133-7.37305 39.7461 3.75977l12.1582 12.0605c1.17188 1.17188 1.36719 2.09961 1.02539 3.80859l-1.61133 7.42188 7.51953 7.42188 4.93164-0.292969c1.26953-0.0488281 1.66016 0.0488281 2.63672 1.02539l2.88086 2.88086-12.207 12.207-2.88086-2.88086c-0.976562-0.976562-1.12305-1.36719-1.07422-2.68555l0.341797-4.88281-7.4707-7.42188-7.61719 1.26953c-1.61133 0.341797-2.34375 0.195312-3.56445-0.976562l-10.0098-10.0098c-1.26953-1.17188-1.41602-2.00195-0.634766-3.85742l4.39453-10.4492c-7.8125-7.27539-17.9688-10.4004-28.125-7.42188-0.78125 0.195312-1.07422-0.439453-0.439453-0.976562Z"/>
  </g>
  <text style="stroke:none;fill:black;font-family:sans-serif;font-size:13;font-weight:bold;" transform="matrix(1 0 0 1 1289 1953)">Exporting</text>
  <text style="stroke:none;fill:black;font-family:sans-serif;font-size:13;" transform="matrix(1 0 0 1 1289 1971)">Symbols should be outlined when exporting to ensure the</text>
  <text style="stroke:none;fill:black;font-family:sans-serif;font-size:13;" transform="matrix(1 0 0 1 1289 1989)">design is preserved when submitting to Xcode.</text>
  <text id="template-version" style="stroke:none;fill:black;font-family:sans-serif;font-size:13;text-anchor:end;" transform="matrix(1 0 0 1 3036 1933)">Template v.5.0</text>
  <text style="stroke:none;fill:black;font-family:sans-serif;font-size:13;text-anchor:end;" transform="matrix(1 0 0 1 3036 1951)">Requires Xcode 15 or greater</text>
  <text id="descriptive-name" style="stroke:none;fill:black;font-family:sans-serif;font-size:13;text-anchor:end;" transform="matrix(1 0 0 1 3036 1969)">Generated from dollarsign.bank.building</text>
  <text style="stroke:none;fill:black;font-family:sans-serif;font-size:13;text-anchor:end;" transform="matrix(1 0 0 1 3036 1987)">Typeset at 100.0 points</text>
  <text style="stroke:none;fill:black;font-family:sans-serif;font-size:13;" transform="matrix(1 0 0 1 263 726)">Small</text>
  <text style="stroke:none;fill:black;font-family:sans-serif;font-size:13;" transform="matrix(1 0 0 1 263 1156)">Medium</text>
  <text style="stroke:none;fill:black;font-family:sans-serif;font-size:13;" transform="matrix(1 0 0 1 263 1586)">Large</text>
 </g>
 <g id="Guides">
  <g id="H-reference" style="fill:#27AAE1;stroke:none;" transform="matrix(1 0 0 1 339 696)">
   <path d="M0.993654 0L3.63775 0L29.3281-67.1323L30.0303-67.1323L30.0303-70.459L28.1226-70.459ZM11.6885-24.4799L46.9815-24.4799L46.2315-26.7285L12.4385-26.7285ZM55.1196 0L57.7637 0L30.6382-70.459L29.4326-70.459L29.4326-67.1323Z"/>
  </g>
  <line id="Baseline-S" style="fill:none;stroke:#27AAE1;opacity:1;stroke-width:0.5;" x1="263" x2="3036" y1="696" y2="696"/>
  <line id="Capline-S" style="fill:none;stroke:#27AAE1;opacity:1;stroke-width:0.5;" x1="263" x2="3036" y1="625.541" y2="625.541"/>
  <g id="H-reference" style="fill:#27AAE1;stroke:none;" transform="matrix(1 0 0 1 339 1126)">
   <path d="M0.993654 0L3.63775 0L29.3281-67.1323L30.0303-67.1323L30.0303-70.459L28.1226-70.459ZM11.6885-24.4799L46.9815-24.4799L46.2315-26.7285L12.4385-26.7285ZM55.1196 0L57.7637 0L30.6382-70.459L29.4326-70.459L29.4326-67.1323Z"/>
  </g>
  <line id="Baseline-M" style="fill:none;stroke:#27AAE1;opacity:1;stroke-width:0.5;" x1="263" x2="3036" y1="1126" y2="1126"/>
  <line id="Capline-M" style="fill:none;stroke:#27AAE1;opacity:1;stroke-width:0.5;" x1="263" x2="3036" y1="1055.54" y2="1055.54"/>
  <g id="H-reference" style="fill:#27AAE1;stroke:none;" transform="matrix(1 0 0 1 339 1556)">
   <path d="M0.993654 0L3.63775 0L29.3281-67.1323L30.0303-67.1323L30.0303-70.459L28.1226-70.459ZM11.6885-24.4799L46.9815-24.4799L46.2315-26.7285L12.4385-26.7285ZM55.1196 0L57.7637 0L30.6382-70.459L29.4326-70.459L29.4326-67.1323Z"/>
  </g>
  <line id="Baseline-L" style="fill:none;stroke:#27AAE1;opacity:1;stroke-width:0.5;" x1="263" x2="3036" y1="1556" y2="1556"/>
  <line id="Capline-L" style="fill:none;stroke:#27AAE1;opacity:1;stroke-width:0.5;" x1="263" x2="3036" y1="1485.54" y2="1485.54"/>
  <line id="right-margin-Black-S" style="fill:none;stroke:#00AEEF;stroke-width:0.5;opacity:1.0;" x1="2992.7" x2="2992.7" y1="600.785" y2="720.121"/>
  <line id="left-margin-Black-S" style="fill:none;stroke:#00AEEF;stroke-width:0.5;opacity:1.0;" x1="2874.1" x2="2874.1" y1="600.785" y2="720.121"/>
  <line id="right-margin-Regular-S" style="fill:none;stroke:#00AEEF;stroke-width:0.5;opacity:1.0;" x1="1503.14" x2="1503.14" y1="600.785" y2="720.121"/>
  <line id="left-margin-Regular-S" style="fill:none;stroke:#00AEEF;stroke-width:0.5;opacity:1.0;" x1="1396.55" x2="1396.55" y1="600.785" y2="720.121"/>
  <line id="right-margin-Ultralight-S" style="fill:none;stroke:#00AEEF;stroke-width:0.5;opacity:1.0;" x1="608.489" x2="608.489" y1="600.785" y2="720.121"/>
  <line id="left-margin-Ultralight-S" style="fill:none;stroke:#00AEEF;stroke-width:0.5;opacity:1.0;" x1="510.933" x2="510.933" y1="600.785" y2="720.121"/>
 </g>
 <g id="Symbols">
  <g id="Black-S" transform="matrix(1 0 0 1 2874.1 696)">
   <path class="monochrome-0 multicolor-0:tintColor hierarchical-0:secondary SFSymbolsPreviewWireframe" d="M18.4082-0.488281L101.514-0.488281L101.514-4.88281C101.514-7.22656 100.049-8.64258 97.7539-8.64258L96.6797-8.64258L96.6797-50.8789L99.6094-50.8789C103.174-50.8789 105.273-53.5645 105.273-56.2012C105.273-58.1543 104.199-59.9609 101.953-61.2793L66.1133-81.9336C64.2578-83.0078 62.0117-83.6914 59.9609-83.6914C57.9102-83.6914 55.6641-83.0078 53.8086-81.9336L17.9688-61.2793C15.7227-59.9609 14.6484-58.1543 14.6484-56.2012C14.6484-53.5645 16.748-50.8789 20.3125-50.8789L23.2422-50.8789L23.2422-8.64258L22.168-8.64258C19.873-8.64258 18.4082-7.22656 18.4082-4.88281ZM32.4707-8.64258L32.4707-57.0801L59.4238-72.1191C59.6191-72.2168 59.8145-72.2656 59.9609-72.2656C60.1562-72.2656 60.3027-72.2168 60.498-72.1191L87.4512-57.0801L87.4512-8.64258ZM15.1367 13.1836L103.418 13.1836C106.299 13.1836 108.838 10.8398 108.838 7.8125C108.838 4.88281 106.299 2.44141 103.418 2.44141L15.1367 2.44141C12.2559 2.44141 9.76562 4.88281 9.76562 7.8125C9.76562 10.791 12.2559 13.1836 15.1367 13.1836Z"/>
   <path class="monochrome-1 multicolor-1:tintColor hierarchical-1:primary SFSymbolsPreviewWireframe" d="M59.5703-20.3125C66.5039-20.3125 73.6816-23.1934 73.6816-30.5176C73.6816-36.2793 69.7754-38.3301 63.7207-39.6484L60.3027-40.3809C56.4941-41.2109 55.1758-41.9434 55.1758-43.4082C55.1758-44.9219 56.7871-45.752 59.7168-45.752C61.4746-45.752 63.3789-45.2637 64.4531-43.7988C65.5273-42.334 66.8457-41.4062 68.7012-41.4062C70.8008-41.4062 72.6074-42.4805 72.6074-44.5801C72.6074-49.3164 66.8457-52.4414 59.5703-52.4414C52.7832-52.4414 46.2891-49.2676 46.2891-42.5293C46.2891-36.8164 50.4883-34.1797 56.1035-33.0566L59.5703-32.373C62.5488-31.7871 64.8438-31.2988 64.8438-29.4434C64.8438-27.8809 62.9883-27.002 59.7168-27.002C57.1777-27.002 55.7129-27.5879 54.8828-28.9551C53.8574-30.5664 52.7344-31.4941 50.8301-31.4941C48.3887-31.4941 46.6797-30.2246 46.6797-27.7832C46.6797-26.9043 46.9238-26.0742 47.3633-25.2441C48.9746-22.4609 53.2715-20.3125 59.5703-20.3125ZM59.9609-16.4062C60.4492-16.4062 60.8887-16.8457 60.8887-17.334L60.8887-55.5664C60.8887-56.0547 60.4492-56.4941 59.9609-56.4941C59.4727-56.4941 59.0332-56.0547 59.0332-55.5664L59.0332-17.334C59.0332-16.8457 59.4727-16.4062 59.9609-16.4062Z"/>
  </g>
  <g id="Regular-S" transform="matrix(1 0 0 1 1396.55 696)">
   <path class="monochrome-0 multicolor-0:tintColor hierarchical-0:secondary SFSymbolsPreviewWireframe" d="M15.2832-3.90625L91.3574-3.90625L91.3574-6.73828C91.3574-8.49609 90.332-9.52148 88.5254-9.52148L86.084-9.52148L86.084-49.4629L89.3555-49.4629C91.748-49.4629 93.1641-51.2207 93.1641-52.9785C93.1641-54.2969 92.3828-55.4199 90.8203-56.3965L58.2031-75.1953C56.6406-76.123 54.9316-76.6113 53.3203-76.6113C51.6602-76.6113 49.9512-76.123 48.3887-75.1953L15.7715-56.3965C14.1602-55.4199 13.4277-54.2969 13.4277-52.9785C13.4277-51.2207 14.8438-49.4629 17.2363-49.4629L20.5566-49.4629L20.5566-9.52148L18.1152-9.52148C16.3086-9.52148 15.2832-8.49609 15.2832-6.73828ZM27.1484-9.52148L27.1484-54.7363L52.002-68.6035C52.3926-68.8477 52.8809-68.9941 53.3203-68.9941C53.7109-68.9941 54.1992-68.8477 54.5898-68.6035L79.541-54.7363L79.541-9.52148ZM13.2812 6.10352L93.3105 6.10352C95.2148 6.10352 96.8262 4.49219 96.8262 2.53906C96.8262 0.634766 95.2148-0.976562 93.3105-0.976562L13.2812-0.976562C11.377-0.976562 9.76562 0.634766 9.76562 2.53906C9.76562 4.49219 11.377 6.10352 13.2812 6.10352Z"/>
   <path class="monochrome-1 multicolor-1:tintColor hierarchical-1:primary SFSymbolsPreviewWireframe" d="M53.3691-19.2383C60.0098-19.2383 65.7715-22.3145 65.7715-29.0527C65.7715-34.9609 60.9863-37.207 55.7617-38.4277L52.0508-39.3066C48.7305-40.0879 46.1426-41.5039 46.1426-44.4336C46.1426-47.9004 49.9023-49.5117 53.3691-49.5117C57.0801-49.5117 59.4727-47.9004 60.498-44.8242C60.9863-43.5547 61.7676-42.9688 62.9395-42.9688C63.9648-42.9688 65.1855-43.6035 65.1855-45.1172C65.1855-50.293 58.5938-53.6621 53.3691-53.6621C47.0215-53.6621 41.4062-50.1465 41.4062-44.0918C41.4062-38.1836 46.2891-35.9863 51.0254-34.8633L54.7363-33.9844C58.0566-33.2031 61.0352-32.0801 61.0352-28.6621C61.0352-24.5605 57.1777-23.3887 53.4668-23.3887C49.5605-23.3887 46.9727-24.5605 45.459-28.0762C44.873-29.3945 44.2383-29.8828 43.0664-29.8828C41.8457-29.8828 40.8203-29.1016 40.8203-27.7344C40.8203-27.3438 40.918-26.9043 41.0645-26.416C42.5781-21.3379 48.3398-19.2383 53.3691-19.2383ZM53.3203-14.6973C54.0527-14.6973 54.6875-15.332 54.6875-16.0645L54.6875-56.7871C54.6875-57.5684 54.0527-58.2031 53.3203-58.2031C52.5391-58.2031 51.9043-57.5684 51.9043-56.7871L51.9043-16.0645C51.9043-15.332 52.5391-14.6973 53.3203-14.6973Z"/>
  </g>
  <g id="Ultralight-S" transform="matrix(1 0 0 1 510.933 696)">
   <path class="monochrome-0 multicolor-0:tintColor hierarchical-0:secondary SFSymbolsPreviewWireframe" d="M12.9673-1.90822L84.5914-1.90822L84.5914-3.24173C84.5914-3.72806 84.2471-4.0269 83.7574-4.0269L81.316-4.0269L81.316-51.4609L85.0415-51.4609C85.8448-51.4609 86.2164-51.9473 86.2164-52.5698C86.2164-52.8892 86.0254-53.3311 85.5074-53.6265L52.4815-72.6978C51.2823-73.3985 50.0274-73.7505 48.7793-73.7505C47.5279-73.7505 46.2276-73.3985 45.0283-72.6978L12.0025-53.6265C11.5264-53.3311 11.3389-52.8892 11.3389-52.5698C11.3389-51.9473 11.6651-51.4609 12.5137-51.4609L16.2427-51.4609L16.2427-4.0269L13.8013-4.0269C13.3115-4.0269 12.9673-3.72806 12.9673-3.24173ZM18.4298-4.0269L18.4298-54.7363L46.3257-70.647C47.0796-71.0727 47.9312-71.31 48.7793-71.31C49.6241-71.31 50.4302-71.0727 51.1841-70.647L79.1323-54.7363L79.1323-4.0269ZM10.8745 3.2427L86.6807 3.2427C87.2681 3.2427 87.7896 2.72121 87.7896 2.13037C87.7896 1.49755 87.2681 1.02147 86.6807 1.02147L10.8745 1.02147C10.2417 1.02147 9.76562 1.49755 9.76562 2.13037C9.76562 2.72121 10.2417 3.2427 10.8745 3.2427Z"/>
   <path class="monochrome-1 multicolor-1:tintColor hierarchical-1:primary SFSymbolsPreviewWireframe" d="M48.8282-18.4663C54.5606-18.4663 60.1407-21.1792 60.1407-27.0547C60.1407-32.0093 56.1729-34.1192 50.9937-35.3399L47.4644-36.128C44.2803-36.8638 40.2847-38.2798 40.2847-42.2085C40.2847-46.5381 44.8619-48.3765 48.8282-48.3765C52.9024-48.3765 56.6572-46.4927 57.4556-42.69C57.5352-42.0562 57.9986-41.6973 58.4893-41.6973C59.106-41.6973 59.5547-42.105 59.5547-42.7105C59.5547-46.5694 54.7339-50.3472 48.8282-50.3472C43.4795-50.3472 38.0913-47.4219 38.0913-42.0938C38.0913-37.3208 42.4292-35.2144 47.0293-34.1367L50.5586-33.3032C54.4239-32.3857 58.0381-30.854 58.0381-26.8911C58.0381-22.2901 53.4995-20.3916 48.8804-20.3916C44.1114-20.3916 40.2066-22.5171 39.5103-26.6685C39.3785-27.3511 38.9253-27.6123 38.4346-27.6123C37.8042-27.6123 37.3692-27.1944 37.3692-26.5083C37.3692-26.2539 37.4214-25.9961 37.4771-25.7349C38.6275-20.7476 43.708-18.4663 48.8282-18.4663ZM48.7793-13.8799C49.1939-13.8799 49.5562-14.1968 49.5562-14.6113L49.5562-53.8355C49.5562-54.208 49.1939-54.5703 48.7793-54.5703C48.3614-54.5703 47.9991-54.208 47.9991-53.8355L47.9991-14.6113C47.9991-14.1968 48.3614-13.8799 48.7793-13.8799Z"/>
  </g>
 </g>
</svg>
