<!DOCTYPE svg PUBLIC "-//W3C//DTD SVG 1.1//EN" "http://www.w3.org/Graphics/SVG/1.1/DTD/svg11.dtd">
<!-- Uploaded to: SVG Repo, www.svgrepo.com, Transformed by: SVG Repo Mixer Tools -->
<svg fill="#000000" height="800px" width="800px" version="1.1" id="Layer_1" xmlns="http://www.w3.org/2000/svg" xmlns:xlink="http://www.w3.org/1999/xlink" viewBox="0 0 512 512" xml:space="preserve">
<g id="SVGRepo_bgCarrier" stroke-width="0"/>
<g id="SVGRepo_tracerCarrier" stroke-linecap="round" stroke-linejoin="round"/>
<g id="SVGRepo_iconCarrier"> <g> <g> <path d="M495.251,267.77c-0.104-0.103-0.208-0.207-0.312-0.309c7.814-7.664,12.666-18.334,12.666-30.116 c-0.003-11.28-4.393-21.881-12.357-29.842c-0.103-0.104-0.208-0.208-0.313-0.31c7.814-7.664,12.667-18.335,12.667-30.117 c0-19.466-13.247-35.896-31.199-40.747c1.042-3.688,1.589-7.541,1.589-11.466c0-23.278-18.938-42.216-42.216-42.216 c-2.817,0-5.607,0.284-8.328,0.834c-3.934-19.224-20.985-33.729-41.361-33.729c-3.541,0-7.021,0.447-10.381,1.297 c-2.194-8.513-6.435-16.454-12.494-23.094c-8.917-9.769-20.455-17.459-33.371-22.238C319.598,1.922,308.747,0,297.587,0H214.52 c-11.192,0-22.078,1.931-32.372,5.745c-12.882,4.793-24.394,12.481-33.292,22.233c-6.063,6.646-10.294,14.578-12.487,23.08 c-3.38-0.86-6.887-1.308-10.46-1.308c-20.375,0-37.425,14.505-41.361,33.729c-2.723-0.551-5.511-0.834-8.328-0.834 c-23.278,0-42.216,18.938-42.216,42.216c0,3.925,0.547,7.778,1.589,11.466c-17.953,4.852-31.198,21.282-31.198,40.747 c0,11.783,4.854,22.454,12.667,30.117c-0.101,0.099-0.202,0.198-0.302,0.298c-7.975,7.973-12.365,18.575-12.365,29.853 c0,11.783,4.853,22.453,12.666,30.116c-0.098,0.097-0.196,0.193-0.292,0.29C8.789,275.712,4.394,286.314,4.394,297.6 c0,11.782,4.854,22.453,12.666,30.116c-0.098,0.097-0.194,0.192-0.291,0.29c-7.981,7.963-12.375,18.563-12.375,29.851 c0,11.783,4.854,22.454,12.667,30.117c-0.101,0.099-0.202,0.198-0.302,0.298c-7.975,7.973-12.365,18.574-12.365,29.853 c0,19.077,12.722,35.239,30.128,40.444v41.174c0,6.668,5.407,12.075,12.075,12.075h85.236L255.982,512c0.006,0,0.012,0,0.018,0 s0.012,0,0.018,0l124.13-0.181h85.254c6.668,0,12.076-5.407,12.076-12.075V458.57c17.407-5.207,30.128-21.368,30.128-40.444 c0-11.279-4.392-21.88-12.363-29.851c-0.101-0.1-0.203-0.2-0.304-0.301c7.814-7.664,12.667-18.335,12.667-30.117 c0-11.288-4.396-21.888-12.354-29.83c-0.104-0.103-0.208-0.206-0.312-0.309c7.814-7.664,12.666-18.334,12.666-30.116 C507.606,286.314,503.21,275.713,495.251,267.77z M335.801,35.885c3.519,2.466,6.748,5.253,9.572,8.348 c5.991,6.565,8.787,15.432,7.672,24.351c-0.82,6.644-3.711,12.721-8.365,17.578l-76.606,79.976v-25.29l8.094-7.936 C310.745,98.996,330.393,67.077,335.801,35.885z M166.698,44.257c2.821-3.093,6.045-5.878,9.555-8.344 c5.442,30.86,24.861,63.242,57.943,96.516l9.727,9.792v24.101l-76.562-80.165c-4.552-4.771-7.418-10.722-8.292-17.222 C157.844,59.906,160.625,50.913,166.698,44.257z M119.775,487.668H58.674v-27.339h61.102V487.668z M243.923,487.668h-99.997 v-27.339h23.318c6.668,0,12.075-5.407,12.075-12.076s-5.407-12.075-12.075-12.075h-23.318V207.771 c0-6.668-5.407-12.076-12.076-12.076c-6.668,0-12.075,5.407-12.075,12.076v228.408h-70.46c-0.46,0-0.912,0.031-1.358,0.081 c-0.447-0.049-0.898-0.081-1.359-0.081c-9.954,0-18.053-8.099-18.053-18.053c0-4.827,1.879-9.362,5.293-12.775 c3.41-3.411,7.942-5.29,12.76-5.29c6.668,0,12.076-5.407,12.076-12.075s-5.407-12.076-12.076-12.076 c-9.954,0-18.053-8.099-18.053-18.053c0-4.825,1.875-9.355,5.301-12.771c3.397-3.405,7.926-5.281,12.753-5.281 c6.668,0,12.075-5.407,12.075-12.075s-5.407-12.076-12.075-12.076c-9.954,0-18.053-8.099-18.053-18.053 c0-4.825,1.877-9.355,5.301-12.772c3.397-3.405,7.926-5.281,12.753-5.281c6.668,0,12.075-5.407,12.075-12.075 s-5.407-12.076-12.075-12.076c-9.954,0-18.053-8.099-18.053-18.053c0-4.827,1.879-9.362,5.301-12.784 c3.397-3.405,7.926-5.281,12.753-5.281c6.668,0,12.076-5.407,12.076-12.075c0-6.668-5.407-12.076-12.076-12.076 c-9.954,0-18.053-8.099-18.053-18.053c0-9.954,8.099-18.052,18.053-18.052c2.613,0,5.148,0.554,7.535,1.646 c5.694,2.605,12.438,0.424,15.527-5.025s1.501-12.353-3.658-15.905c-4.914-3.381-7.848-8.943-7.848-14.878 c0-9.961,8.104-18.065,18.065-18.065c5.093,0,9.983,2.18,13.415,5.98c4.005,4.438,10.66,5.275,15.644,1.965 c4.981-3.31,6.79-9.768,4.252-15.182c-1.118-2.386-1.686-4.944-1.686-7.603c0-9.954,8.104-18.053,18.065-18.053 c3.652,0,7.14,1.092,10.104,3.108c2.188,9.682,6.924,18.531,13.877,25.82l94.031,98.456V487.668z M259.256,115.672l-3.881,3.807 l-4.048-4.076c-31.842-32.025-49.332-62.115-52.115-89.578c4.967-1.112,10.087-1.675,15.308-1.675h83.067 c5.186,0,10.273,0.555,15.203,1.656C309.947,53.386,291.981,83.572,259.256,115.672z M382.272,487.668h-2.126h-0.018H268.074 v-27.339h114.198V487.668z M453.324,487.668h-46.901v-27.339h46.901V487.668z M465.4,279.547c4.825,0,9.355,1.875,12.771,5.3 c3.405,3.398,5.282,7.928,5.282,12.754c0,9.954-8.099,18.053-18.053,18.053c-6.668,0-12.076,5.407-12.076,12.076 s5.407,12.075,12.076,12.075c4.825,0,9.355,1.875,12.772,5.3c3.405,3.397,5.281,7.926,5.281,12.753 c0,9.954-8.099,18.053-18.053,18.053c-6.668,0-12.076,5.407-12.076,12.075c0,6.668,5.407,12.076,12.076,12.076 c4.818,0,9.35,1.879,12.763,5.293c3.411,3.41,5.29,7.946,5.29,12.772c0,9.954-8.099,18.053-18.053,18.053 c-0.46,0-0.912,0.031-1.359,0.081c-0.447-0.049-0.898-0.081-1.358-0.081h-56.26V207.771c0-6.668-5.407-12.076-12.075-12.076 s-12.076,5.407-12.076,12.076v228.408H268.074V201.053l94.044-98.183c7.003-7.307,11.757-16.184,13.944-25.902 c2.951-1.983,6.417-3.065,10.027-3.065c9.961,0,18.065,8.099,18.065,18.053c0,2.659-0.568,5.217-1.686,7.603 c-2.539,5.415-0.729,11.873,4.252,15.182c4.986,3.312,11.637,2.474,15.644-1.965c3.433-3.8,8.322-5.98,13.415-5.98 c9.961,0,18.065,8.104,18.065,18.065c0,5.935-2.934,11.497-7.848,14.878c-5.159,3.55-6.748,10.456-3.658,15.905 c3.09,5.45,9.831,7.633,15.527,5.025c2.388-1.092,4.922-1.646,7.535-1.646c9.954,0,18.053,8.098,18.053,18.052 c0,9.954-8.099,18.053-18.053,18.053c-6.668,0-12.076,5.407-12.076,12.076s5.407,12.076,12.076,12.076 c4.825,0,9.355,1.875,12.763,5.293c3.411,3.41,5.29,7.946,5.29,12.772c0,9.954-8.099,18.053-18.053,18.053 c-6.668,0-12.075,5.407-12.075,12.075S458.731,279.547,465.4,279.547z"/> </g> </g> <g> <g> <path d="M204.977,436.178c-6.666,0-12.075,5.41-12.075,12.076c0,6.678,5.41,12.075,12.075,12.075 c6.678,0,12.076-5.398,12.076-12.075C217.053,441.588,211.655,436.178,204.977,436.178z"/> </g> </g> </g>
</svg>