<?xml version="1.0" encoding="iso-8859-1"?>
<!-- Uploaded to: SVG Repo, www.svgrepo.com, Generator: SVG Repo Mixer Tools -->
<svg fill="#000000" height="800px" width="800px" version="1.1" id="Layer_1" xmlns="http://www.w3.org/2000/svg" xmlns:xlink="http://www.w3.org/1999/xlink" 
	 viewBox="0 0 511.999 511.999" xml:space="preserve">
<g>
	<g>
		<path d="M375.146,503.235l-23.473-250.378c-1.155-12.324-8.723-22.495-19.248-27.386v-25.898
			c5.561-3.911,9.524-10.015,10.494-17.139L366.556,9.099c0.312-2.294-0.381-4.61-1.904-6.355C363.13,1.002,360.928,0,358.613,0
			h-34.206c-1.421,0-2.815,0.377-4.042,1.094c-17.686,10.323-40.546,16.009-64.374,16.009c-23.819,0-46.676-5.682-64.361-16.001
			l-0.004,0.008c-1.17-0.673-2.627-1.099-4.405-1.102L153.386,0c-2.315,0-4.517,1.002-6.039,2.745
			c-1.522,1.744-2.216,4.061-1.904,6.355l23.636,173.334c0.972,7.124,4.933,13.228,10.494,17.139v25.898
			c-10.524,4.891-18.092,15.063-19.248,27.386l-23.473,250.378c-0.211,2.247,0.536,4.478,2.054,6.146
			c1.519,1.669,3.672,2.619,5.927,2.619h222.33c2.256,0,4.408-0.951,5.927-2.619C374.61,507.713,375.356,505.481,375.146,503.235z
			 M255.992,33.136c20.92,0,41.288-3.991,58.807-11.392c-6.234,26.706-30.222,46.666-58.8,46.666
			c-28.576,0-52.562-19.956-58.799-46.659C214.718,29.148,235.079,33.136,255.992,33.136z M162.57,16.033
			c5.79,0,12.444,0.001,17.426,0.002c4.022,38.386,36.571,68.407,76.004,68.407c39.434,0,71.984-30.022,76.004-68.409h17.426
			l-22.395,164.233c-0.611,4.48-4.481,7.858-9.002,7.858H193.967c-4.521,0-8.392-3.379-9.002-7.858L162.57,16.033z M316.392,204.159
			v18.171H195.607v-18.171H316.392z M153.638,495.967l22.651-241.613c0.854-9.117,8.404-15.991,17.56-15.991h19.471l-8.081,145.459
			c-0.246,4.421,3.139,8.204,7.559,8.448c0.152,0.009,0.301,0.013,0.452,0.013c4.223,0,7.76-3.303,7.996-7.572l8.132-146.349h18.604
			v205.762c0,4.427,3.589,8.017,8.017,8.017s8.017-3.589,8.017-8.017V238.363h18.604l8.13,146.349
			c0.237,4.269,3.773,7.572,7.996,7.572c0.15,0,0.3-0.004,0.452-0.013c4.421-0.245,7.805-4.029,7.559-8.448l-8.08-145.459h19.471
			c9.156,0,16.706,6.874,17.56,15.991l22.652,241.613H153.638z"/>
	</g>
</g>
</svg>