<svg xmlns="http://www.w3.org/2000/svg" xmlns:xlink="http://www.w3.org/1999/xlink" version="1.1" width="256" height="256" viewBox="0 0 256 256" xml:space="preserve">

<defs>
</defs>
<g style="stroke: none; stroke-width: 0; stroke-dasharray: none; stroke-linecap: butt; stroke-linejoin: miter; stroke-miterlimit: 10; fill: none; fill-rule: nonzero; opacity: 1;" transform="translate(1.4065934065934016 1.4065934065934016) scale(2.81 2.81)" >
	<path d="M 47.407 90 h -4.814 c -1.901 0 -3.532 -1.308 -3.966 -3.181 c -1.923 -8.307 -6.454 -13.76 -13.852 -16.671 c -1.089 -0.43 -1.942 -1.307 -2.34 -2.409 c -0.393 -1.087 -0.3 -2.287 0.253 -3.294 c 7.119 -12.962 7.423 -24.705 0.93 -35.899 c -1.033 -1.781 -0.592 -4.062 1.025 -5.304 c 6.801 -5.224 7.191 -12.826 6.994 -22.221 c -0.005 -0.269 0.098 -0.528 0.286 -0.721 C 32.111 0.108 32.368 0 32.637 0 h 4.837 c 0.267 0 0.523 0.107 0.711 0.297 c 0.188 0.189 0.292 0.447 0.289 0.714 l -0.009 0.784 c -0.109 9.688 -0.222 19.705 6.552 19.819 c 6.739 -0.114 6.626 -10.13 6.518 -19.817 l -0.009 -0.786 c -0.003 -0.267 0.102 -0.524 0.289 -0.714 C 52.003 0.107 52.26 0 52.526 0 h 4.837 c 0.269 0 0.526 0.108 0.715 0.3 c 0.188 0.192 0.291 0.452 0.285 0.721 c -0.197 9.396 0.191 16.998 6.993 22.221 c 1.617 1.243 2.059 3.523 1.025 5.304 c -6.493 11.194 -6.189 22.936 0.931 35.899 c 0.553 1.007 0.645 2.208 0.252 3.295 c -0.397 1.102 -1.251 1.979 -2.34 2.408 c -7.397 2.911 -11.928 8.364 -13.852 16.671 C 50.939 88.692 49.309 90 47.407 90 z M 33.656 2 c 0.143 9.201 -0.53 17.25 -7.793 22.828 c -0.837 0.643 -1.053 1.785 -0.514 2.714 c 6.874 11.852 6.577 24.238 -0.908 37.866 c -0.281 0.511 -0.325 1.098 -0.125 1.652 c 0.203 0.562 0.637 1.009 1.191 1.227 c 7.944 3.126 13.014 9.209 15.067 18.081 C 40.798 87.329 41.628 88 42.593 88 h 4.814 c 0.965 0 1.795 -0.671 2.017 -1.632 c 2.055 -8.872 7.125 -14.955 15.068 -18.081 c 0.554 -0.218 0.988 -0.665 1.191 -1.227 c 0.2 -0.555 0.156 -1.142 -0.125 -1.652 c -7.484 -13.629 -7.781 -26.015 -0.907 -37.866 c 0.54 -0.93 0.323 -2.071 -0.514 -2.714 C 56.874 19.25 56.202 11.201 56.345 2 h -2.808 c 0.113 10.112 0.177 21.467 -8.52 21.614 C 36.287 23.467 36.35 12.112 36.463 2 H 33.656 z" style="stroke: none; stroke-width: 1; stroke-dasharray: none; stroke-linecap: butt; stroke-linejoin: miter; stroke-miterlimit: 10; fill: rgb(0,0,0); fill-rule: nonzero; opacity: 1;" transform=" matrix(1 0 0 1 0 0) " stroke-linecap="round" />
</g>
</svg>